<svg xmlns="http://www.w3.org/2000/svg" xmlns:xlink="http://www.w3.org/1999/xlink" contentStyleType="text/css" height="405px" preserveAspectRatio="none" style="width:1109px;height:405px;background:#FFFFFF;" version="1.1" viewBox="0 0 1109 405" width="1109px" zoomAndPan="magnify"><defs/><g><!--class ConnClient--><g id="elem_ConnClient"><rect codeLine="3" fill="#F1F1F1" height="48" id="ConnClient" rx="2.5" ry="2.5" style="stroke:#181818;stroke-width:0.5;" width="108.6172" x="525" y="132"/><ellipse cx="540" cy="148" fill="#B4A7E5" rx="11" ry="11" style="stroke:#181818;stroke-width:1.0;"/><path d="M535.9219,143.7656 L535.9219,141.6094 L543.3125,141.6094 L543.3125,143.7656 L540.8438,143.7656 L540.8438,151.8438 L543.3125,151.8438 L543.3125,154 L535.9219,154 L535.9219,151.8438 L538.3906,151.8438 L538.3906,143.7656 L535.9219,143.7656 Z " fill="#000000"/><text fill="#000000" font-family="sans-serif" font-size="14" font-style="italic" lengthAdjust="spacing" textLength="76.6172" x="554" y="152.8467">ConnClient</text><line style="stroke:#181818;stroke-width:0.5;" x1="526" x2="632.6172" y1="164" y2="164"/><line style="stroke:#181818;stroke-width:0.5;" x1="526" x2="632.6172" y1="172" y2="172"/></g><!--class ClientFactory--><g id="elem_ClientFactory"><rect codeLine="4" fill="#F1F1F1" height="48" id="ClientFactory" rx="2.5" ry="2.5" style="stroke:#181818;stroke-width:0.5;" width="124.9551" x="365" y="132"/><ellipse cx="380" cy="148" fill="#B4A7E5" rx="11" ry="11" style="stroke:#181818;stroke-width:1.0;"/><path d="M375.9219,143.7656 L375.9219,141.6094 L383.3125,141.6094 L383.3125,143.7656 L380.8438,143.7656 L380.8438,151.8438 L383.3125,151.8438 L383.3125,154 L375.9219,154 L375.9219,151.8438 L378.3906,151.8438 L378.3906,143.7656 L375.9219,143.7656 Z " fill="#000000"/><text fill="#000000" font-family="sans-serif" font-size="14" font-style="italic" lengthAdjust="spacing" textLength="92.9551" x="394" y="152.8467">ClientFactory</text><line style="stroke:#181818;stroke-width:0.5;" x1="366" x2="488.9551" y1="164" y2="164"/><line style="stroke:#181818;stroke-width:0.5;" x1="366" x2="488.9551" y1="172" y2="172"/></g><!--class ConnMonitor--><g id="elem_ConnMonitor"><rect codeLine="5" fill="#F1F1F1" height="48" id="ConnMonitor" rx="2.5" ry="2.5" style="stroke:#181818;stroke-width:0.5;" width="121.3047" x="786" y="241"/><ellipse cx="801" cy="257" fill="#B4A7E5" rx="11" ry="11" style="stroke:#181818;stroke-width:1.0;"/><path d="M796.9219,252.7656 L796.9219,250.6094 L804.3125,250.6094 L804.3125,252.7656 L801.8438,252.7656 L801.8438,260.8438 L804.3125,260.8438 L804.3125,263 L796.9219,263 L796.9219,260.8438 L799.3906,260.8438 L799.3906,252.7656 L796.9219,252.7656 Z " fill="#000000"/><text fill="#000000" font-family="sans-serif" font-size="14" font-style="italic" lengthAdjust="spacing" textLength="89.3047" x="815" y="261.8467">ConnMonitor</text><line style="stroke:#181818;stroke-width:0.5;" x1="787" x2="906.3047" y1="273" y2="273"/><line style="stroke:#181818;stroke-width:0.5;" x1="787" x2="906.3047" y1="281" y2="281"/></g><!--class HashDigest--><g id="elem_HashDigest"><rect codeLine="6" fill="#F1F1F1" height="48" id="HashDigest" rx="2.5" ry="2.5" style="stroke:#181818;stroke-width:0.5;" width="112.2266" x="966.5" y="7"/><ellipse cx="981.5" cy="23" fill="#B4A7E5" rx="11" ry="11" style="stroke:#181818;stroke-width:1.0;"/><path d="M977.4219,18.7656 L977.4219,16.6094 L984.8125,16.6094 L984.8125,18.7656 L982.3438,18.7656 L982.3438,26.8438 L984.8125,26.8438 L984.8125,29 L977.4219,29 L977.4219,26.8438 L979.8906,26.8438 L979.8906,18.7656 L977.4219,18.7656 Z " fill="#000000"/><text fill="#000000" font-family="sans-serif" font-size="14" font-style="italic" lengthAdjust="spacing" textLength="80.2266" x="995.5" y="27.8467">HashDigest</text><line style="stroke:#181818;stroke-width:0.5;" x1="967.5" x2="1077.7266" y1="39" y2="39"/><line style="stroke:#181818;stroke-width:0.5;" x1="967.5" x2="1077.7266" y1="47" y2="47"/></g><!--class StreamDigest--><g id="elem_StreamDigest"><rect codeLine="7" fill="#F1F1F1" height="48" id="StreamDigest" rx="2.5" ry="2.5" style="stroke:#181818;stroke-width:0.5;" width="127.915" x="727.5" y="132"/><ellipse cx="742.5" cy="148" fill="#B4A7E5" rx="11" ry="11" style="stroke:#181818;stroke-width:1.0;"/><path d="M738.4219,143.7656 L738.4219,141.6094 L745.8125,141.6094 L745.8125,143.7656 L743.3438,143.7656 L743.3438,151.8438 L745.8125,151.8438 L745.8125,154 L738.4219,154 L738.4219,151.8438 L740.8906,151.8438 L740.8906,143.7656 L738.4219,143.7656 Z " fill="#000000"/><text fill="#000000" font-family="sans-serif" font-size="14" font-style="italic" lengthAdjust="spacing" textLength="95.915" x="756.5" y="152.8467">StreamDigest</text><line style="stroke:#181818;stroke-width:0.5;" x1="728.5" x2="854.415" y1="164" y2="164"/><line style="stroke:#181818;stroke-width:0.5;" x1="728.5" x2="854.415" y1="172" y2="172"/></g><!--class HashEchoClient--><g id="elem_HashEchoClient"><rect codeLine="10" fill="#F1F1F1" height="48" id="HashEchoClient" rx="2.5" ry="2.5" style="stroke:#181818;stroke-width:0.5;" width="141.7852" x="557.5" y="241"/><ellipse cx="572.5" cy="257" fill="#ADD1B2" rx="11" ry="11" style="stroke:#181818;stroke-width:1.0;"/><path d="M575.4688,262.6406 Q574.8906,262.9375 574.25,263.0781 Q573.6094,263.2344 572.9063,263.2344 Q570.4063,263.2344 569.0781,261.5938 Q567.7656,259.9375 567.7656,256.8125 Q567.7656,253.6875 569.0781,252.0313 Q570.4063,250.375 572.9063,250.375 Q573.6094,250.375 574.25,250.5313 Q574.9063,250.6875 575.4688,250.9844 L575.4688,253.7031 Q574.8438,253.125 574.25,252.8594 Q573.6563,252.5781 573.0313,252.5781 Q571.6875,252.5781 571,253.6563 Q570.3125,254.7188 570.3125,256.8125 Q570.3125,258.9063 571,259.9844 Q571.6875,261.0469 573.0313,261.0469 Q573.6563,261.0469 574.25,260.7813 Q574.8438,260.5 575.4688,259.9219 L575.4688,262.6406 Z " fill="#000000"/><text fill="#000000" font-family="sans-serif" font-size="14" lengthAdjust="spacing" textLength="109.7852" x="586.5" y="261.8467">HashEchoClient</text><line style="stroke:#181818;stroke-width:0.5;" x1="558.5" x2="698.2852" y1="273" y2="273"/><line style="stroke:#181818;stroke-width:0.5;" x1="558.5" x2="698.2852" y1="281" y2="281"/></g><!--class MD5Digest--><g id="elem_MD5Digest"><rect codeLine="11" fill="#F1F1F1" height="48" id="MD5Digest" rx="2.5" ry="2.5" style="stroke:#181818;stroke-width:0.5;" width="108.7197" x="968" y="132"/><ellipse cx="983" cy="148" fill="#ADD1B2" rx="11" ry="11" style="stroke:#181818;stroke-width:1.0;"/><path d="M985.9688,153.6406 Q985.3906,153.9375 984.75,154.0781 Q984.1094,154.2344 983.4063,154.2344 Q980.9063,154.2344 979.5781,152.5938 Q978.2656,150.9375 978.2656,147.8125 Q978.2656,144.6875 979.5781,143.0313 Q980.9063,141.375 983.4063,141.375 Q984.1094,141.375 984.75,141.5313 Q985.4063,141.6875 985.9688,141.9844 L985.9688,144.7031 Q985.3438,144.125 984.75,143.8594 Q984.1563,143.5781 983.5313,143.5781 Q982.1875,143.5781 981.5,144.6563 Q980.8125,145.7188 980.8125,147.8125 Q980.8125,149.9063 981.5,150.9844 Q982.1875,152.0469 983.5313,152.0469 Q984.1563,152.0469 984.75,151.7813 Q985.3438,151.5 985.9688,150.9219 L985.9688,153.6406 Z " fill="#000000"/><text fill="#000000" font-family="sans-serif" font-size="14" lengthAdjust="spacing" textLength="76.7197" x="997" y="152.8467">MD5Digest</text><line style="stroke:#181818;stroke-width:0.5;" x1="969" x2="1075.7197" y1="164" y2="164"/><line style="stroke:#181818;stroke-width:0.5;" x1="969" x2="1075.7197" y1="172" y2="172"/></g><!--class ClientStatsMonitor--><g id="elem_ClientStatsMonitor"><rect codeLine="12" fill="#F1F1F1" height="48" id="ClientStatsMonitor" rx="2.5" ry="2.5" style="stroke:#181818;stroke-width:0.5;" width="161.4863" x="766" y="350"/><ellipse cx="781" cy="366" fill="#ADD1B2" rx="11" ry="11" style="stroke:#181818;stroke-width:1.0;"/><path d="M783.9688,371.6406 Q783.3906,371.9375 782.75,372.0781 Q782.1094,372.2344 781.4063,372.2344 Q778.9063,372.2344 777.5781,370.5938 Q776.2656,368.9375 776.2656,365.8125 Q776.2656,362.6875 777.5781,361.0313 Q778.9063,359.375 781.4063,359.375 Q782.1094,359.375 782.75,359.5313 Q783.4063,359.6875 783.9688,359.9844 L783.9688,362.7031 Q783.3438,362.125 782.75,361.8594 Q782.1563,361.5781 781.5313,361.5781 Q780.1875,361.5781 779.5,362.6563 Q778.8125,363.7188 778.8125,365.8125 Q778.8125,367.9063 779.5,368.9844 Q780.1875,370.0469 781.5313,370.0469 Q782.1563,370.0469 782.75,369.7813 Q783.3438,369.5 783.9688,368.9219 L783.9688,371.6406 Z " fill="#000000"/><text fill="#000000" font-family="sans-serif" font-size="14" lengthAdjust="spacing" textLength="129.4863" x="795" y="370.8467">ClientStatsMonitor</text><line style="stroke:#181818;stroke-width:0.5;" x1="767" x2="926.4863" y1="382" y2="382"/><line style="stroke:#181818;stroke-width:0.5;" x1="767" x2="926.4863" y1="390" y2="390"/></g><!--class HashEchoClientFactory--><g id="elem_HashEchoClientFactory"><rect codeLine="13" fill="#F1F1F1" height="48" id="HashEchoClientFactory" rx="2.5" ry="2.5" style="stroke:#181818;stroke-width:0.5;" width="194.21" x="282.5" y="241"/><ellipse cx="297.5" cy="257" fill="#ADD1B2" rx="11" ry="11" style="stroke:#181818;stroke-width:1.0;"/><path d="M300.4688,262.6406 Q299.8906,262.9375 299.25,263.0781 Q298.6094,263.2344 297.9063,263.2344 Q295.4063,263.2344 294.0781,261.5938 Q292.7656,259.9375 292.7656,256.8125 Q292.7656,253.6875 294.0781,252.0313 Q295.4063,250.375 297.9063,250.375 Q298.6094,250.375 299.25,250.5313 Q299.9063,250.6875 300.4688,250.9844 L300.4688,253.7031 Q299.8438,253.125 299.25,252.8594 Q298.6563,252.5781 298.0313,252.5781 Q296.6875,252.5781 296,253.6563 Q295.3125,254.7188 295.3125,256.8125 Q295.3125,258.9063 296,259.9844 Q296.6875,261.0469 298.0313,261.0469 Q298.6563,261.0469 299.25,260.7813 Q299.8438,260.5 300.4688,259.9219 L300.4688,262.6406 Z " fill="#000000"/><text fill="#000000" font-family="sans-serif" font-size="14" lengthAdjust="spacing" textLength="162.21" x="311.5" y="261.8467">HashEchoClientFactory</text><line style="stroke:#181818;stroke-width:0.5;" x1="283.5" x2="475.71" y1="273" y2="273"/><line style="stroke:#181818;stroke-width:0.5;" x1="283.5" x2="475.71" y1="281" y2="281"/></g><!--class TcpServer--><g id="elem_TcpServer"><rect codeLine="14" fill="#F1F1F1" height="48" id="TcpServer" rx="2.5" ry="2.5" style="stroke:#181818;stroke-width:0.5;" width="103.0459" x="7" y="132"/><ellipse cx="22" cy="148" fill="#ADD1B2" rx="11" ry="11" style="stroke:#181818;stroke-width:1.0;"/><path d="M24.9688,153.6406 Q24.3906,153.9375 23.75,154.0781 Q23.1094,154.2344 22.4063,154.2344 Q19.9063,154.2344 18.5781,152.5938 Q17.2656,150.9375 17.2656,147.8125 Q17.2656,144.6875 18.5781,143.0313 Q19.9063,141.375 22.4063,141.375 Q23.1094,141.375 23.75,141.5313 Q24.4063,141.6875 24.9688,141.9844 L24.9688,144.7031 Q24.3438,144.125 23.75,143.8594 Q23.1563,143.5781 22.5313,143.5781 Q21.1875,143.5781 20.5,144.6563 Q19.8125,145.7188 19.8125,147.8125 Q19.8125,149.9063 20.5,150.9844 Q21.1875,152.0469 22.5313,152.0469 Q23.1563,152.0469 23.75,151.7813 Q24.3438,151.5 24.9688,150.9219 L24.9688,153.6406 Z " fill="#000000"/><text fill="#000000" font-family="sans-serif" font-size="14" lengthAdjust="spacing" textLength="71.0459" x="36" y="152.8467">TcpServer</text><line style="stroke:#181818;stroke-width:0.5;" x1="8" x2="109.0459" y1="164" y2="164"/><line style="stroke:#181818;stroke-width:0.5;" x1="8" x2="109.0459" y1="172" y2="172"/></g><!--class TaskManager--><g id="elem_TaskManager"><rect codeLine="15" fill="#F1F1F1" height="48" id="TaskManager" rx="2.5" ry="2.5" style="stroke:#181818;stroke-width:0.5;" width="125.8984" x="203.5" y="132"/><ellipse cx="218.5" cy="148" fill="#ADD1B2" rx="11" ry="11" style="stroke:#181818;stroke-width:1.0;"/><path d="M221.4688,153.6406 Q220.8906,153.9375 220.25,154.0781 Q219.6094,154.2344 218.9063,154.2344 Q216.4063,154.2344 215.0781,152.5938 Q213.7656,150.9375 213.7656,147.8125 Q213.7656,144.6875 215.0781,143.0313 Q216.4063,141.375 218.9063,141.375 Q219.6094,141.375 220.25,141.5313 Q220.9063,141.6875 221.4688,141.9844 L221.4688,144.7031 Q220.8438,144.125 220.25,143.8594 Q219.6563,143.5781 219.0313,143.5781 Q217.6875,143.5781 217,144.6563 Q216.3125,145.7188 216.3125,147.8125 Q216.3125,149.9063 217,150.9844 Q217.6875,152.0469 219.0313,152.0469 Q219.6563,152.0469 220.25,151.7813 Q220.8438,151.5 221.4688,150.9219 L221.4688,153.6406 Z " fill="#000000"/><text fill="#000000" font-family="sans-serif" font-size="14" lengthAdjust="spacing" textLength="93.8984" x="232.5" y="152.8467">TaskManager</text><line style="stroke:#181818;stroke-width:0.5;" x1="204.5" x2="328.3984" y1="164" y2="164"/><line style="stroke:#181818;stroke-width:0.5;" x1="204.5" x2="328.3984" y1="172" y2="172"/></g><!--class StreamMD5Digest--><g id="elem_StreamMD5Digest"><rect fill="#F1F1F1" height="48" id="StreamMD5Digest" rx="2.5" ry="2.5" style="stroke:#181818;stroke-width:0.5;" width="159.6816" x="942.5" y="241"/><ellipse cx="957.5" cy="257" fill="#ADD1B2" rx="11" ry="11" style="stroke:#181818;stroke-width:1.0;"/><path d="M960.4688,262.6406 Q959.8906,262.9375 959.25,263.0781 Q958.6094,263.2344 957.9063,263.2344 Q955.4063,263.2344 954.0781,261.5938 Q952.7656,259.9375 952.7656,256.8125 Q952.7656,253.6875 954.0781,252.0313 Q955.4063,250.375 957.9063,250.375 Q958.6094,250.375 959.25,250.5313 Q959.9063,250.6875 960.4688,250.9844 L960.4688,253.7031 Q959.8438,253.125 959.25,252.8594 Q958.6563,252.5781 958.0313,252.5781 Q956.6875,252.5781 956,253.6563 Q955.3125,254.7188 955.3125,256.8125 Q955.3125,258.9063 956,259.9844 Q956.6875,261.0469 958.0313,261.0469 Q958.6563,261.0469 959.25,260.7813 Q959.8438,260.5 960.4688,259.9219 L960.4688,262.6406 Z " fill="#000000"/><text fill="#000000" font-family="sans-serif" font-size="14" lengthAdjust="spacing" textLength="127.6816" x="971.5" y="261.8467">StreamMD5Digest</text><line style="stroke:#181818;stroke-width:0.5;" x1="943.5" x2="1101.1816" y1="273" y2="273"/><line style="stroke:#181818;stroke-width:0.5;" x1="943.5" x2="1101.1816" y1="281" y2="281"/></g><!--reverse link ConnClient to HashEchoClient--><g id="link_ConnClient_HashEchoClient"><path codeLine="17" d="M597.6279,196.584 C605.8479,214.524 609.67,222.89 617.89,240.83 " fill="none" id="ConnClient-backto-HashEchoClient" style="stroke:#181818;stroke-width:1.0;"/><polygon fill="none" points="590.13,180.22,592.1732,199.0833,603.0826,194.0847,590.13,180.22" style="stroke:#181818;stroke-width:1.0;"/></g><!--reverse link HashDigest to MD5Digest--><g id="link_HashDigest_MD5Digest"><path codeLine="18" d="M1022.5,73.14 C1022.5,95.13 1022.5,110.01 1022.5,131.97 " fill="none" id="HashDigest-backto-MD5Digest" style="stroke:#181818;stroke-width:1.0;"/><polygon fill="none" points="1022.5,55.14,1016.5,73.14,1028.5,73.14,1022.5,55.14" style="stroke:#181818;stroke-width:1.0;"/></g><!--reverse link StreamDigest to StreamMD5Digest--><g id="link_StreamDigest_StreamMD5Digest"><path codeLine="19" d="M857.6729,187.6554 C896.5329,205.6554 933.91,222.97 972.75,240.96 " fill="none" id="StreamDigest-backto-StreamMD5Digest" style="stroke:#181818;stroke-width:1.0;"/><polygon fill="none" points="841.34,180.09,855.1511,193.0997,860.1947,182.2111,841.34,180.09" style="stroke:#181818;stroke-width:1.0;"/></g><!--reverse link ConnMonitor to ClientStatsMonitor--><g id="link_ConnMonitor_ClientStatsMonitor"><path codeLine="20" d="M846.5,307.22 C846.5,325.16 846.5,331.89 846.5,349.83 " fill="none" id="ConnMonitor-backto-ClientStatsMonitor" style="stroke:#181818;stroke-width:1.0;"/><polygon fill="none" points="846.5,289.22,840.5,307.22,852.5,307.22,846.5,289.22" style="stroke:#181818;stroke-width:1.0;"/></g><!--reverse link ClientFactory to HashEchoClientFactory--><g id="link_ClientFactory_HashEchoClientFactory"><path codeLine="21" d="M409.7109,196.6425 C401.6609,214.5825 397.94,222.89 389.89,240.83 " fill="none" id="ClientFactory-backto-HashEchoClientFactory" style="stroke:#181818;stroke-width:1.0;"/><polygon fill="none" points="417.08,180.22,404.2368,194.1861,415.1851,199.0988,417.08,180.22" style="stroke:#181818;stroke-width:1.0;"/></g><!--link TcpServer to ClientFactory--><g id="link_TcpServer_ClientFactory"><path codeLine="23" d="M103.78,131.8 C154.43,107.82 238.9,77.08 311.5,95 C340.66,102.2 370.59,118.19 392.74,132 " fill="none" id="TcpServer-ClientFactory" style="stroke:#181818;stroke-width:1.0;"/><polygon fill="#000000" points="225.5,93.5699,216.457,90.6247,216.4529,96.5025,225.5,93.5699" style="stroke:#000000;stroke-width:1.0;"/><text fill="#000000" font-family="sans-serif" font-size="13" lengthAdjust="spacing" textLength="81.3896" x="229.5" y="98.0669">create client</text></g><!--link TcpServer to ConnClient--><g id="link_TcpServer_ConnClient"><path codeLine="24" d="M81.42,131.81 C96.11,118.13 116.42,102.33 138,95 C156.94,88.57 163.03,93.87 183,95 C327.92,103.24 365.77,100.66 507.5,132 C513.16,133.25 519,134.78 524.8,136.46 " fill="none" id="TcpServer-ConnClient" style="stroke:#181818;stroke-width:1.0;"/><polygon fill="#000000" points="147.9997,93.6188,138.986,90.5852,138.9243,96.4627,147.9997,93.6188" style="stroke:#000000;stroke-width:1.0;"/><text fill="#000000" font-family="sans-serif" font-size="13" lengthAdjust="spacing" textLength="30.2783" x="152" y="98.0669">start</text></g><!--link TcpServer to TaskManager--><g id="link_TcpServer_TaskManager"><path codeLine="25" d="M110.18,156 C138.34,156 173.41,156 203.19,156 " fill="none" id="TcpServer-TaskManager" style="stroke:#181818;stroke-width:1.0;"/><polygon fill="#000000" points="137.25,144.5664,128.2049,141.6275,128.2049,147.5053,137.25,144.5664" style="stroke:#000000;stroke-width:1.0;"/><text fill="#000000" font-family="sans-serif" font-size="13" lengthAdjust="spacing" textLength="44.6367" x="141.25" y="149.0669">submit</text></g><!--link MD5Digest to StreamMD5Digest--><g id="link_MD5Digest_StreamMD5Digest"><path codeLine="27" d="M1022.5,180.22 C1022.5,198.16 1022.5,210.89 1022.5,228.83 " fill="none" id="MD5Digest-to-StreamMD5Digest" style="stroke:#181818;stroke-width:1.0;"/><polygon fill="none" points="1022.5,240.83,1026.5,234.83,1022.5,228.83,1018.5,234.83,1022.5,240.83" style="stroke:#181818;stroke-width:1.0;"/></g><!--link StreamDigest to HashEchoClient--><g id="link_StreamDigest_HashEchoClient"><path codeLine="28" d="M756.13,180.22 C728.79,198.16 701.1507,216.3032 673.8307,234.2432 " fill="none" id="StreamDigest-to-HashEchoClient" style="stroke:#181818;stroke-width:1.0;"/><polygon fill="none" points="663.8,240.83,671.0109,240.8802,673.8307,234.2432,666.6198,234.1931,663.8,240.83" style="stroke:#181818;stroke-width:1.0;"/></g><!--link HashEchoClientFactory to HashEchoClient--><g id="link_HashEchoClientFactory_HashEchoClient"><path codeLine="29" d="M476.84,265 C503.71,265 532.36,265 557.43,265 " fill="none" id="HashEchoClientFactory-HashEchoClient" style="stroke:#181818;stroke-width:1.0;"/><polygon fill="#000000" points="504,253.5664,494.9549,250.6275,494.9549,256.5053,504,253.5664" style="stroke:#000000;stroke-width:1.0;"/><text fill="#000000" font-family="sans-serif" font-size="13" lengthAdjust="spacing" textLength="31.9668" x="508" y="258.0669">build</text></g><!--link HashEchoClient to ConnMonitor--><g id="link_HashEchoClient_ConnMonitor"><path codeLine="30" d="M699.58,265 C727.41,265 759.01,265 785.76,265 " fill="none" id="HashEchoClient-ConnMonitor" style="stroke:#181818;stroke-width:1.0;"/><polygon fill="#000000" points="726.75,253.5664,717.7049,250.6275,717.7049,256.5053,726.75,253.5664" style="stroke:#000000;stroke-width:1.0;"/><text fill="#000000" font-family="sans-serif" font-size="13" lengthAdjust="spacing" textLength="37.1719" x="730.75" y="258.0669">notify</text></g><!--SRC=[RP7DRiCW48JlF0MtdgXFlKHLBqchNdnoNc13Y8tAZmNhIf7wyBLPEmR7HsO_c9dbfKFiuw6gUWCE1sjUfRULD12Zk6fe0rZ6j4CLRY0LFthdZaOhXxcOX2-GwCDz0zVUwL7Er6-8tKctAkPFD1WKs5bcBFadybDsVZOaiJwzpHYTQTWWO5oyzculwMXsbdsZmgzQs3F4dneSjAF2rexy_K-8JOerVffcUV8ED2Db9RA54B0JleXBr7uJzYZ1HVa5_C0_k1ojKN59gGjsxJU14I6KGBOD8eQBrUEtF8fm8VnJkQB-1Emixga5txPBXfT1c-lcmXnyMT-4EO_wTcV_]--></g></svg>