<svg xmlns="http://www.w3.org/2000/svg" xmlns:xlink="http://www.w3.org/1999/xlink" contentStyleType="text/css" height="405px" preserveAspectRatio="none" style="width:1113px;height:405px;background:#FFFFFF;" version="1.1" viewBox="0 0 1113 405" width="1113px" zoomAndPan="magnify"><defs/><g><!--class ConnClient--><g id="elem_ConnClient"><rect codeLine="3" fill="#F1F1F1" height="48" id="ConnClient" rx="2.5" ry="2.5" style="stroke:#181818;stroke-width:0.5;" width="108.6172" x="525" y="132"/><ellipse cx="540" cy="148" fill="#B4A7E5" rx="11" ry="11" style="stroke:#181818;stroke-width:1.0;"/><path d="M535.9219,143.7656 L535.9219,141.6094 L543.3125,141.6094 L543.3125,143.7656 L540.8438,143.7656 L540.8438,151.8438 L543.3125,151.8438 L543.3125,154 L535.9219,154 L535.9219,151.8438 L538.3906,151.8438 L538.3906,143.7656 L535.9219,143.7656 Z " fill="#000000"/><text fill="#000000" font-family="sans-serif" font-size="14" font-style="italic" lengthAdjust="spacing" textLength="76.6172" x="554" y="152.8467">ConnClient</text><line style="stroke:#181818;stroke-width:0.5;" x1="526" x2="632.6172" y1="164" y2="164"/><line style="stroke:#181818;stroke-width:0.5;" x1="526" x2="632.6172" y1="172" y2="172"/></g><!--class ClientFactory--><g id="elem_ClientFactory"><rect codeLine="4" fill="#F1F1F1" height="48" id="ClientFactory" rx="2.5" ry="2.5" style="stroke:#181818;stroke-width:0.5;" width="124.9551" x="365" y="132"/><ellipse cx="380" cy="148" fill="#B4A7E5" rx="11" ry="11" style="stroke:#181818;stroke-width:1.0;"/><path d="M375.9219,143.7656 L375.9219,141.6094 L383.3125,141.6094 L383.3125,143.7656 L380.8438,143.7656 L380.8438,151.8438 L383.3125,151.8438 L383.3125,154 L375.9219,154 L375.9219,151.8438 L378.3906,151.8438 L378.3906,143.7656 L375.9219,143.7656 Z " fill="#000000"/><text fill="#000000" font-family="sans-serif" font-size="14" font-style="italic" lengthAdjust="spacing" textLength="92.9551" x="394" y="152.8467">ClientFactory</text><line style="stroke:#181818;stroke-width:0.5;" x1="366" x2="488.9551" y1="164" y2="164"/><line style="stroke:#181818;stroke-width:0.5;" x1="366" x2="488.9551" y1="172" y2="172"/></g><!--class ConnMonitor--><g id="elem_ConnMonitor"><rect codeLine="5" fill="#F1F1F1" height="48" id="ConnMonitor" rx="2.5" ry="2.5" style="stroke:#181818;stroke-width:0.5;" width="121.3047" x="790" y="241"/><ellipse cx="805" cy="257" fill="#B4A7E5" rx="11" ry="11" style="stroke:#181818;stroke-width:1.0;"/><path d="M800.9219,252.7656 L800.9219,250.6094 L808.3125,250.6094 L808.3125,252.7656 L805.8438,252.7656 L805.8438,260.8438 L808.3125,260.8438 L808.3125,263 L800.9219,263 L800.9219,260.8438 L803.3906,260.8438 L803.3906,252.7656 L800.9219,252.7656 Z " fill="#000000"/><text fill="#000000" font-family="sans-serif" font-size="14" font-style="italic" lengthAdjust="spacing" textLength="89.3047" x="819" y="261.8467">ConnMonitor</text><line style="stroke:#181818;stroke-width:0.5;" x1="791" x2="910.3047" y1="273" y2="273"/><line style="stroke:#181818;stroke-width:0.5;" x1="791" x2="910.3047" y1="281" y2="281"/></g><!--class HashDigest--><g id="elem_HashDigest"><rect codeLine="6" fill="#F1F1F1" height="48" id="HashDigest" rx="2.5" ry="2.5" style="stroke:#181818;stroke-width:0.5;" width="112.2266" x="970.5" y="7"/><ellipse cx="985.5" cy="23" fill="#B4A7E5" rx="11" ry="11" style="stroke:#181818;stroke-width:1.0;"/><path d="M981.4219,18.7656 L981.4219,16.6094 L988.8125,16.6094 L988.8125,18.7656 L986.3438,18.7656 L986.3438,26.8438 L988.8125,26.8438 L988.8125,29 L981.4219,29 L981.4219,26.8438 L983.8906,26.8438 L983.8906,18.7656 L981.4219,18.7656 Z " fill="#000000"/><text fill="#000000" font-family="sans-serif" font-size="14" font-style="italic" lengthAdjust="spacing" textLength="80.2266" x="999.5" y="27.8467">HashDigest</text><line style="stroke:#181818;stroke-width:0.5;" x1="971.5" x2="1081.7266" y1="39" y2="39"/><line style="stroke:#181818;stroke-width:0.5;" x1="971.5" x2="1081.7266" y1="47" y2="47"/></g><!--class StreamDigest--><g id="elem_StreamDigest"><rect codeLine="7" fill="#F1F1F1" height="48" id="StreamDigest" rx="2.5" ry="2.5" style="stroke:#181818;stroke-width:0.5;" width="127.915" x="728.5" y="132"/><ellipse cx="743.5" cy="148" fill="#B4A7E5" rx="11" ry="11" style="stroke:#181818;stroke-width:1.0;"/><path d="M739.4219,143.7656 L739.4219,141.6094 L746.8125,141.6094 L746.8125,143.7656 L744.3438,143.7656 L744.3438,151.8438 L746.8125,151.8438 L746.8125,154 L739.4219,154 L739.4219,151.8438 L741.8906,151.8438 L741.8906,143.7656 L739.4219,143.7656 Z " fill="#000000"/><text fill="#000000" font-family="sans-serif" font-size="14" font-style="italic" lengthAdjust="spacing" textLength="95.915" x="757.5" y="152.8467">StreamDigest</text><line style="stroke:#181818;stroke-width:0.5;" x1="729.5" x2="855.415" y1="164" y2="164"/><line style="stroke:#181818;stroke-width:0.5;" x1="729.5" x2="855.415" y1="172" y2="172"/></g><!--class HashEchoClient--><g id="elem_HashEchoClient"><rect codeLine="10" fill="#F1F1F1" height="48" id="HashEchoClient" rx="2.5" ry="2.5" style="stroke:#181818;stroke-width:0.5;" width="141.7852" x="561.5" y="241"/><ellipse cx="576.5" cy="257" fill="#ADD1B2" rx="11" ry="11" style="stroke:#181818;stroke-width:1.0;"/><path d="M579.4688,262.6406 Q578.8906,262.9375 578.25,263.0781 Q577.6094,263.2344 576.9063,263.2344 Q574.4063,263.2344 573.0781,261.5938 Q571.7656,259.9375 571.7656,256.8125 Q571.7656,253.6875 573.0781,252.0313 Q574.4063,250.375 576.9063,250.375 Q577.6094,250.375 578.25,250.5313 Q578.9063,250.6875 579.4688,250.9844 L579.4688,253.7031 Q578.8438,253.125 578.25,252.8594 Q577.6563,252.5781 577.0313,252.5781 Q575.6875,252.5781 575,253.6563 Q574.3125,254.7188 574.3125,256.8125 Q574.3125,258.9063 575,259.9844 Q575.6875,261.0469 577.0313,261.0469 Q577.6563,261.0469 578.25,260.7813 Q578.8438,260.5 579.4688,259.9219 L579.4688,262.6406 Z " fill="#000000"/><text fill="#000000" font-family="sans-serif" font-size="14" lengthAdjust="spacing" textLength="109.7852" x="590.5" y="261.8467">HashEchoClient</text><line style="stroke:#181818;stroke-width:0.5;" x1="562.5" x2="702.2852" y1="273" y2="273"/><line style="stroke:#181818;stroke-width:0.5;" x1="562.5" x2="702.2852" y1="281" y2="281"/></g><!--class MD5Digest--><g id="elem_MD5Digest"><rect codeLine="11" fill="#F1F1F1" height="48" id="MD5Digest" rx="2.5" ry="2.5" style="stroke:#181818;stroke-width:0.5;" width="108.7197" x="972" y="132"/><ellipse cx="987" cy="148" fill="#ADD1B2" rx="11" ry="11" style="stroke:#181818;stroke-width:1.0;"/><path d="M989.9688,153.6406 Q989.3906,153.9375 988.75,154.0781 Q988.1094,154.2344 987.4063,154.2344 Q984.9063,154.2344 983.5781,152.5938 Q982.2656,150.9375 982.2656,147.8125 Q982.2656,144.6875 983.5781,143.0313 Q984.9063,141.375 987.4063,141.375 Q988.1094,141.375 988.75,141.5313 Q989.4063,141.6875 989.9688,141.9844 L989.9688,144.7031 Q989.3438,144.125 988.75,143.8594 Q988.1563,143.5781 987.5313,143.5781 Q986.1875,143.5781 985.5,144.6563 Q984.8125,145.7188 984.8125,147.8125 Q984.8125,149.9063 985.5,150.9844 Q986.1875,152.0469 987.5313,152.0469 Q988.1563,152.0469 988.75,151.7813 Q989.3438,151.5 989.9688,150.9219 L989.9688,153.6406 Z " fill="#000000"/><text fill="#000000" font-family="sans-serif" font-size="14" lengthAdjust="spacing" textLength="76.7197" x="1001" y="152.8467">MD5Digest</text><line style="stroke:#181818;stroke-width:0.5;" x1="973" x2="1079.7197" y1="164" y2="164"/><line style="stroke:#181818;stroke-width:0.5;" x1="973" x2="1079.7197" y1="172" y2="172"/></g><!--class ClientStatsMonitor--><g id="elem_ClientStatsMonitor"><rect codeLine="12" fill="#F1F1F1" height="48" id="ClientStatsMonitor" rx="2.5" ry="2.5" style="stroke:#181818;stroke-width:0.5;" width="161.4863" x="770" y="350"/><ellipse cx="785" cy="366" fill="#ADD1B2" rx="11" ry="11" style="stroke:#181818;stroke-width:1.0;"/><path d="M787.9688,371.6406 Q787.3906,371.9375 786.75,372.0781 Q786.1094,372.2344 785.4063,372.2344 Q782.9063,372.2344 781.5781,370.5938 Q780.2656,368.9375 780.2656,365.8125 Q780.2656,362.6875 781.5781,361.0313 Q782.9063,359.375 785.4063,359.375 Q786.1094,359.375 786.75,359.5313 Q787.4063,359.6875 787.9688,359.9844 L787.9688,362.7031 Q787.3438,362.125 786.75,361.8594 Q786.1563,361.5781 785.5313,361.5781 Q784.1875,361.5781 783.5,362.6563 Q782.8125,363.7188 782.8125,365.8125 Q782.8125,367.9063 783.5,368.9844 Q784.1875,370.0469 785.5313,370.0469 Q786.1563,370.0469 786.75,369.7813 Q787.3438,369.5 787.9688,368.9219 L787.9688,371.6406 Z " fill="#000000"/><text fill="#000000" font-family="sans-serif" font-size="14" lengthAdjust="spacing" textLength="129.4863" x="799" y="370.8467">ClientStatsMonitor</text><line style="stroke:#181818;stroke-width:0.5;" x1="771" x2="930.4863" y1="382" y2="382"/><line style="stroke:#181818;stroke-width:0.5;" x1="771" x2="930.4863" y1="390" y2="390"/></g><!--class HashEchoClientFactory--><g id="elem_HashEchoClientFactory"><rect codeLine="13" fill="#F1F1F1" height="48" id="HashEchoClientFactory" rx="2.5" ry="2.5" style="stroke:#181818;stroke-width:0.5;" width="194.21" x="276.5" y="241"/><ellipse cx="291.5" cy="257" fill="#ADD1B2" rx="11" ry="11" style="stroke:#181818;stroke-width:1.0;"/><path d="M294.4688,262.6406 Q293.8906,262.9375 293.25,263.0781 Q292.6094,263.2344 291.9063,263.2344 Q289.4063,263.2344 288.0781,261.5938 Q286.7656,259.9375 286.7656,256.8125 Q286.7656,253.6875 288.0781,252.0313 Q289.4063,250.375 291.9063,250.375 Q292.6094,250.375 293.25,250.5313 Q293.9063,250.6875 294.4688,250.9844 L294.4688,253.7031 Q293.8438,253.125 293.25,252.8594 Q292.6563,252.5781 292.0313,252.5781 Q290.6875,252.5781 290,253.6563 Q289.3125,254.7188 289.3125,256.8125 Q289.3125,258.9063 290,259.9844 Q290.6875,261.0469 292.0313,261.0469 Q292.6563,261.0469 293.25,260.7813 Q293.8438,260.5 294.4688,259.9219 L294.4688,262.6406 Z " fill="#000000"/><text fill="#000000" font-family="sans-serif" font-size="14" lengthAdjust="spacing" textLength="162.21" x="305.5" y="261.8467">HashEchoClientFactory</text><line style="stroke:#181818;stroke-width:0.5;" x1="277.5" x2="469.71" y1="273" y2="273"/><line style="stroke:#181818;stroke-width:0.5;" x1="277.5" x2="469.71" y1="281" y2="281"/></g><!--class TcpServer--><g id="elem_TcpServer"><rect codeLine="14" fill="#F1F1F1" height="48" id="TcpServer" rx="2.5" ry="2.5" style="stroke:#181818;stroke-width:0.5;" width="103.0459" x="7" y="132"/><ellipse cx="22" cy="148" fill="#ADD1B2" rx="11" ry="11" style="stroke:#181818;stroke-width:1.0;"/><path d="M24.9688,153.6406 Q24.3906,153.9375 23.75,154.0781 Q23.1094,154.2344 22.4063,154.2344 Q19.9063,154.2344 18.5781,152.5938 Q17.2656,150.9375 17.2656,147.8125 Q17.2656,144.6875 18.5781,143.0313 Q19.9063,141.375 22.4063,141.375 Q23.1094,141.375 23.75,141.5313 Q24.4063,141.6875 24.9688,141.9844 L24.9688,144.7031 Q24.3438,144.125 23.75,143.8594 Q23.1563,143.5781 22.5313,143.5781 Q21.1875,143.5781 20.5,144.6563 Q19.8125,145.7188 19.8125,147.8125 Q19.8125,149.9063 20.5,150.9844 Q21.1875,152.0469 22.5313,152.0469 Q23.1563,152.0469 23.75,151.7813 Q24.3438,151.5 24.9688,150.9219 L24.9688,153.6406 Z " fill="#000000"/><text fill="#000000" font-family="sans-serif" font-size="14" lengthAdjust="spacing" textLength="71.0459" x="36" y="152.8467">TcpServer</text><line style="stroke:#181818;stroke-width:0.5;" x1="8" x2="109.0459" y1="164" y2="164"/><line style="stroke:#181818;stroke-width:0.5;" x1="8" x2="109.0459" y1="172" y2="172"/></g><!--class TaskManager--><g id="elem_TaskManager"><rect codeLine="15" fill="#F1F1F1" height="48" id="TaskManager" rx="2.5" ry="2.5" style="stroke:#181818;stroke-width:0.5;" width="125.8984" x="203.5" y="132"/><ellipse cx="218.5" cy="148" fill="#ADD1B2" rx="11" ry="11" style="stroke:#181818;stroke-width:1.0;"/><path d="M221.4688,153.6406 Q220.8906,153.9375 220.25,154.0781 Q219.6094,154.2344 218.9063,154.2344 Q216.4063,154.2344 215.0781,152.5938 Q213.7656,150.9375 213.7656,147.8125 Q213.7656,144.6875 215.0781,143.0313 Q216.4063,141.375 218.9063,141.375 Q219.6094,141.375 220.25,141.5313 Q220.9063,141.6875 221.4688,141.9844 L221.4688,144.7031 Q220.8438,144.125 220.25,143.8594 Q219.6563,143.5781 219.0313,143.5781 Q217.6875,143.5781 217,144.6563 Q216.3125,145.7188 216.3125,147.8125 Q216.3125,149.9063 217,150.9844 Q217.6875,152.0469 219.0313,152.0469 Q219.6563,152.0469 220.25,151.7813 Q220.8438,151.5 221.4688,150.9219 L221.4688,153.6406 Z " fill="#000000"/><text fill="#000000" font-family="sans-serif" font-size="14" lengthAdjust="spacing" textLength="93.8984" x="232.5" y="152.8467">TaskManager</text><line style="stroke:#181818;stroke-width:0.5;" x1="204.5" x2="328.3984" y1="164" y2="164"/><line style="stroke:#181818;stroke-width:0.5;" x1="204.5" x2="328.3984" y1="172" y2="172"/></g><!--class StreamMD5Digest--><g id="elem_StreamMD5Digest"><rect fill="#F1F1F1" height="48" id="StreamMD5Digest" rx="2.5" ry="2.5" style="stroke:#181818;stroke-width:0.5;" width="159.6816" x="946.5" y="241"/><ellipse cx="961.5" cy="257" fill="#ADD1B2" rx="11" ry="11" style="stroke:#181818;stroke-width:1.0;"/><path d="M964.4688,262.6406 Q963.8906,262.9375 963.25,263.0781 Q962.6094,263.2344 961.9063,263.2344 Q959.4063,263.2344 958.0781,261.5938 Q956.7656,259.9375 956.7656,256.8125 Q956.7656,253.6875 958.0781,252.0313 Q959.4063,250.375 961.9063,250.375 Q962.6094,250.375 963.25,250.5313 Q963.9063,250.6875 964.4688,250.9844 L964.4688,253.7031 Q963.8438,253.125 963.25,252.8594 Q962.6563,252.5781 962.0313,252.5781 Q960.6875,252.5781 960,253.6563 Q959.3125,254.7188 959.3125,256.8125 Q959.3125,258.9063 960,259.9844 Q960.6875,261.0469 962.0313,261.0469 Q962.6563,261.0469 963.25,260.7813 Q963.8438,260.5 964.4688,259.9219 L964.4688,262.6406 Z " fill="#000000"/><text fill="#000000" font-family="sans-serif" font-size="14" lengthAdjust="spacing" textLength="127.6816" x="975.5" y="261.8467">StreamMD5Digest</text><line style="stroke:#181818;stroke-width:0.5;" x1="947.5" x2="1105.1816" y1="273" y2="273"/><line style="stroke:#181818;stroke-width:0.5;" x1="947.5" x2="1105.1816" y1="281" y2="281"/></g><!--reverse link ConnClient to HashEchoClient--><g id="link_ConnClient_HashEchoClient"><path codeLine="17" d="M598.9923,196.3484 C607.8823,214.2884 612.14,222.89 621.02,240.83 " fill="none" id="ConnClient-backto-HashEchoClient" style="stroke:#181818;stroke-width:1.0;"/><polygon fill="none" points="591,180.22,593.6161,199.0124,604.3684,193.6843,591,180.22" style="stroke:#181818;stroke-width:1.0;"/></g><!--reverse link HashDigest to MD5Digest--><g id="link_HashDigest_MD5Digest"><path codeLine="18" d="M1026.5,73.14 C1026.5,95.13 1026.5,110.01 1026.5,131.97 " fill="none" id="HashDigest-backto-MD5Digest" style="stroke:#181818;stroke-width:1.0;"/><polygon fill="none" points="1026.5,55.14,1020.5,73.14,1032.5,73.14,1026.5,55.14" style="stroke:#181818;stroke-width:1.0;"/></g><!--reverse link StreamDigest to StreamMD5Digest--><g id="link_StreamDigest_StreamMD5Digest"><path codeLine="19" d="M859.3595,187.576 C898.7195,205.576 936.76,222.97 976.1,240.96 " fill="none" id="StreamDigest-backto-StreamMD5Digest" style="stroke:#181818;stroke-width:1.0;"/><polygon fill="none" points="842.99,180.09,856.8641,193.0325,861.8548,182.1195,842.99,180.09" style="stroke:#181818;stroke-width:1.0;"/></g><!--reverse link ConnMonitor to ClientStatsMonitor--><g id="link_ConnMonitor_ClientStatsMonitor"><path codeLine="20" d="M850.5,307.22 C850.5,325.16 850.5,331.89 850.5,349.83 " fill="none" id="ConnMonitor-backto-ClientStatsMonitor" style="stroke:#181818;stroke-width:1.0;"/><polygon fill="none" points="850.5,289.22,844.5,307.22,856.5,307.22,850.5,289.22" style="stroke:#181818;stroke-width:1.0;"/></g><!--reverse link ClientFactory to HashEchoClientFactory--><g id="link_ClientFactory_HashEchoClientFactory"><path codeLine="21" d="M407.6729,196.2909 C398.6229,214.2309 394.25,222.89 385.19,240.83 " fill="none" id="ClientFactory-backto-HashEchoClientFactory" style="stroke:#181818;stroke-width:1.0;"/><polygon fill="none" points="415.78,180.22,402.3159,193.5885,413.0298,198.9933,415.78,180.22" style="stroke:#181818;stroke-width:1.0;"/></g><!--link TcpServer to ClientFactory--><g id="link_TcpServer_ClientFactory"><path codeLine="23" d="M114.6259,126.6651 C165.2759,102.6851 238.9,77.08 311.5,95 C340.66,102.2 365.4985,115.0156 387.6485,128.8256 " fill="none" id="TcpServer-ClientFactory" style="stroke:#181818;stroke-width:1.0;"/><polygon fill="none" points="103.78,131.8,110.9146,132.8478,114.6259,126.6651,107.4913,125.6173,103.78,131.8" style="stroke:#181818;stroke-width:1.0;"/><polygon fill="#181818" points="392.74,132,387.2191,123.8441,388.4971,129.3547,382.9865,130.6327,392.74,132" style="stroke:#181818;stroke-width:1.0;"/><polygon fill="#000000" points="225.4998,93.606,216.4783,90.5956,216.4318,96.4732,225.4998,93.606" style="stroke:#000000;stroke-width:1.0;"/><text fill="#000000" font-family="sans-serif" font-size="13" lengthAdjust="spacing" textLength="81.3896" x="229.5" y="98.0669">create client</text></g><!--link TcpServer to ConnClient--><g id="link_TcpServer_ConnClient"><path codeLine="24" d="M81.42,131.81 C96.11,118.13 116.42,102.33 138,95 C156.94,88.57 163.03,93.87 183,95 C327.92,103.24 365.77,100.66 507.5,132 C513.16,133.25 519,134.78 524.8,136.46 " fill="none" id="TcpServer-ConnClient" style="stroke:#181818;stroke-width:1.0;"/><polygon fill="#000000" points="147.9997,93.6188,138.986,90.5852,138.9243,96.4627,147.9997,93.6188" style="stroke:#000000;stroke-width:1.0;"/><text fill="#000000" font-family="sans-serif" font-size="13" lengthAdjust="spacing" textLength="30.2783" x="152" y="98.0669">start</text></g><!--reverse link TcpServer to TaskManager--><g id="link_TcpServer_TaskManager"><path codeLine="25" d="M122.18,156 C150.34,156 173.41,156 203.19,156 " fill="none" id="TcpServer-backto-TaskManager" style="stroke:#181818;stroke-width:1.0;"/><polygon fill="none" points="110.18,156,116.18,160,122.18,156,116.18,152,110.18,156" style="stroke:#181818;stroke-width:1.0;"/><polygon fill="#000000" points="137.25,144.5664,128.2049,141.6275,128.2049,147.5053,137.25,144.5664" style="stroke:#000000;stroke-width:1.0;"/><text fill="#000000" font-family="sans-serif" font-size="13" lengthAdjust="spacing" textLength="44.6367" x="141.25" y="149.0669">submit</text></g><!--link MD5Digest to StreamMD5Digest--><g id="link_MD5Digest_StreamMD5Digest"><path codeLine="27" d="M1026.5,180.22 C1026.5,198.16 1026.5,210.89 1026.5,228.83 " fill="none" id="MD5Digest-to-StreamMD5Digest" style="stroke:#181818;stroke-width:1.0;"/><polygon fill="none" points="1026.5,240.83,1030.5,234.83,1026.5,228.83,1022.5,234.83,1026.5,240.83" style="stroke:#181818;stroke-width:1.0;"/></g><!--link StreamDigest to HashEchoClient--><g id="link_StreamDigest_HashEchoClient"><path codeLine="28" d="M757.78,180.22 C730.95,198.16 703.9443,216.2182 677.1243,234.1582 " fill="none" id="StreamDigest-to-HashEchoClient" style="stroke:#181818;stroke-width:1.0;"/><polygon fill="none" points="667.15,240.83,674.3611,240.8188,677.1243,234.1582,669.9132,234.1693,667.15,240.83" style="stroke:#181818;stroke-width:1.0;"/></g><!--link HashEchoClientFactory to HashEchoClient--><g id="link_HashEchoClientFactory_HashEchoClient"><path codeLine="29" d="M470.68,265 C500.82,265 533.46,265 561.48,265 " fill="none" id="HashEchoClientFactory-HashEchoClient" style="stroke:#181818;stroke-width:1.0;"/><polygon fill="#000000" points="498,253.5664,488.9549,250.6275,488.9549,256.5053,498,253.5664" style="stroke:#000000;stroke-width:1.0;"/><text fill="#000000" font-family="sans-serif" font-size="13" lengthAdjust="spacing" textLength="41.5518" x="502" y="258.0669">create</text></g><!--link HashEchoClient to ConnMonitor--><g id="link_HashEchoClient_ConnMonitor"><path codeLine="30" d="M703.58,265 C731.41,265 763.01,265 789.76,265 " fill="none" id="HashEchoClient-ConnMonitor" style="stroke:#181818;stroke-width:1.0;"/><polygon fill="#000000" points="730.75,253.5664,721.7049,250.6275,721.7049,256.5053,730.75,253.5664" style="stroke:#000000;stroke-width:1.0;"/><text fill="#000000" font-family="sans-serif" font-size="13" lengthAdjust="spacing" textLength="37.1719" x="734.75" y="258.0669">notify</text></g><!--SRC=[RP6nZi8m38RtF4MscqAdMn1YWJlTqgcyW2-4DhecgHA3XCJ3NubRwfQE-Vqv_d_xeq7iqhOekXOyNbsxqS4LkeMKrDb27S49OJsQU05jv25uVsYjySZ5B7o3nX3l2xWCtlOoKtyWDKTRcyI_g30QS8CiH9wVoI_TX64WYUNnSy3eJSKA0TCuQwrxT4Ura-ug4szcP4-G_ahmKFUAc3BAtKEfXOl9VguoFpm3rKYP2BOG0bRCp-mIjPv4l4B8eFRp8yYjt4lT3qSZDVcUQCMkcC64477s7Ly88TTVP_lBlB98fS9Rlja6di3Axjw2o6L0PdxHCLWVL_ZaV41xkOj_]--></g></svg>